<svg width="17" height="17" viewBox="0 0 17 17" fill="none" xmlns="http://www.w3.org/2000/svg">
<path fill-rule="evenodd" clip-rule="evenodd" d="M4.48129 0H15.7313C15.9302 0 16.121 0.0790175 16.2616 0.21967C16.4023 0.360322 16.4813 0.551088 16.4813 0.75V12C16.4813 12.1989 16.4023 12.3897 16.2616 12.5303C16.121 12.671 15.9302 12.75 15.7313 12.75C15.5324 12.75 15.3416 12.671 15.201 12.5303C15.0603 12.3897 14.9813 12.1989 14.9813 12V2.56L1.26129 16.28C1.11912 16.4125 0.93107 16.4846 0.736769 16.4812C0.542468 16.4777 0.357083 16.399 0.21967 16.2616C0.0822571 16.1242 0.00354506 15.9388 0.000116847 15.7445C-0.00331137 15.5502 0.0688118 15.3622 0.201292 15.22L13.9213 1.5H4.48129C4.28238 1.5 4.09161 1.42098 3.95096 1.28033C3.81031 1.13968 3.73129 0.948912 3.73129 0.75C3.73129 0.551088 3.81031 0.360322 3.95096 0.21967C4.09161 0.0790175 4.28238 0 4.48129 0Z" fill="black"/>
</svg>
