<svg width="20" height="20" viewBox="0 0 20 20" fill="none" xmlns="http://www.w3.org/2000/svg">
<path fill-rule="evenodd" clip-rule="evenodd" d="M9.75 0C4.365 0 0 4.365 0 9.75C0 15.135 4.365 19.5 9.75 19.5C15.135 19.5 19.5 15.135 19.5 9.75C19.5 4.365 15.135 0 9.75 0ZM8.03 6.97C7.96134 6.89631 7.87854 6.83721 7.78654 6.79622C7.69454 6.75523 7.59522 6.73318 7.49452 6.73141C7.39382 6.72963 7.29379 6.74816 7.2004 6.78588C7.10701 6.8236 7.02218 6.87974 6.95096 6.95096C6.87974 7.02218 6.8236 7.10701 6.78588 7.2004C6.74816 7.29379 6.72963 7.39382 6.73141 7.49452C6.73318 7.59522 6.75523 7.69454 6.79622 7.78654C6.83721 7.87854 6.89631 7.96134 6.97 8.03L8.69 9.75L6.97 11.47C6.89631 11.5387 6.83721 11.6215 6.79622 11.7135C6.75523 11.8055 6.73318 11.9048 6.73141 12.0055C6.72963 12.1062 6.74816 12.2062 6.78588 12.2996C6.8236 12.393 6.87974 12.4778 6.95096 12.549C7.02218 12.6203 7.10701 12.6764 7.2004 12.7141C7.29379 12.7518 7.39382 12.7704 7.49452 12.7686C7.59522 12.7668 7.69454 12.7448 7.78654 12.7038C7.87854 12.6628 7.96134 12.6037 8.03 12.53L9.75 10.81L11.47 12.53C11.5387 12.6037 11.6215 12.6628 11.7135 12.7038C11.8055 12.7448 11.9048 12.7668 12.0055 12.7686C12.1062 12.7704 12.2062 12.7518 12.2996 12.7141C12.393 12.6764 12.4778 12.6203 12.549 12.549C12.6203 12.4778 12.6764 12.393 12.7141 12.2996C12.7518 12.2062 12.7704 12.1062 12.7686 12.0055C12.7668 11.9048 12.7448 11.8055 12.7038 11.7135C12.6628 11.6215 12.6037 11.5387 12.53 11.47L10.81 9.75L12.53 8.03C12.6037 7.96134 12.6628 7.87854 12.7038 7.78654C12.7448 7.69454 12.7668 7.59522 12.7686 7.49452C12.7704 7.39382 12.7518 7.29379 12.7141 7.2004C12.6764 7.10701 12.6203 7.02218 12.549 6.95096C12.4778 6.87974 12.393 6.8236 12.2996 6.78588C12.2062 6.74816 12.1062 6.72963 12.0055 6.73141C11.9048 6.73318 11.8055 6.75523 11.7135 6.79622C11.6215 6.83721 11.5387 6.89631 11.47 6.97L9.75 8.69L8.03 6.97Z" fill="black"/>
</svg>
