<svg width="32" height="32" viewBox="0 0 32 32" fill="none" xmlns="http://www.w3.org/2000/svg">
<path d="M31.9403 11.8812L16.3422 26.4812H13.211C13.1092 26.4812 13.0097 26.4529 12.925 26.3999C12.8404 26.3469 12.7745 26.2717 12.7356 26.1836C12.6968 26.0956 12.6866 25.9987 12.7066 25.9053C12.7265 25.8119 12.7756 25.726 12.8478 25.6588L17.2559 21.5298C17.6026 21.2047 17.7972 20.7641 17.7971 20.3047V8.07296C17.7971 8.00961 17.8105 7.94688 17.8364 7.88837C17.8624 7.82987 17.9004 7.77673 17.9483 7.73201L20.3305 5.50236C20.8194 5.50567 21.287 5.68977 21.6314 6.01454C21.976 6.33931 22.1693 6.77837 22.1693 7.236V10.7177C22.1694 10.8696 22.1375 11.0199 22.0755 11.1602C22.0136 11.3005 21.9226 11.428 21.808 11.5355L21.4695 11.8523L21.5323 11.9294L27.312 6.52232V0.000964091H27.2091V2.39435C27.2087 2.45627 27.1871 2.51643 27.1474 2.56597C27.1077 2.6155 27.052 2.65179 26.9886 2.66948C26.9252 2.68719 26.8575 2.68534 26.7952 2.66424C26.733 2.64315 26.6798 2.6039 26.6432 2.55229C26.2696 2.01397 25.7582 1.57157 25.1555 1.26527C24.5527 0.958974 23.8778 0.798501 23.192 0.798438H18.3559L14.1268 4.77135L12.4804 6.31236C12.4084 6.37955 12.3168 6.42526 12.217 6.44372C12.1172 6.46219 12.0138 6.45258 11.9199 6.41609C11.8261 6.37962 11.7458 6.3179 11.6893 6.23876C11.6328 6.15961 11.6027 6.06658 11.6027 5.97141V0H11.4998V2.76226C11.4999 2.82808 11.476 2.89197 11.432 2.94334C11.388 2.99472 11.3266 3.03049 11.258 3.04475C11.1893 3.05902 11.1176 3.05092 11.0545 3.02179C10.9914 2.99267 10.9409 2.94426 10.9112 2.88458C10.088 1.23088 8.82755 0.79651 8.82755 0.79651L2.92639 6.2565L2.99844 6.32487L3.25875 6.0841C4.34329 5.0834 6.18928 5.66513 6.39405 7.07804C6.43806 7.38869 6.45936 7.7018 6.45783 8.01517V25.887L0 31.9316L0.073053 32L0.326176 31.763C0.672516 31.438 1.1425 31.2547 1.63299 31.2536H20.3037L30.4781 21.6723C30.8252 21.3474 31.0203 20.9068 31.0205 20.4473V13.583C31.0206 13.1236 31.2156 12.6829 31.5627 12.3579L32 11.9486L31.9403 11.8812ZM11.614 12.3098V7.262L13.4949 5.50139H18.9413C19.0432 5.50122 19.1428 5.52938 19.2276 5.58228C19.3124 5.63519 19.3785 5.71046 19.4175 5.79857C19.4565 5.88667 19.4667 5.98362 19.4468 6.07714C19.4269 6.17067 19.3777 6.25656 19.3056 6.32392L12.4907 12.7028C12.4188 12.7703 12.327 12.8163 12.2271 12.8349C12.1272 12.8536 12.0236 12.844 11.9294 12.8075C11.8353 12.771 11.7548 12.7091 11.6983 12.6298C11.6418 12.5504 11.6118 12.4572 11.612 12.3617L11.614 12.3098ZM11.614 13.6582L12.6553 12.6825V20.0928L11.612 21.0695L11.614 13.6582ZM11.8198 26.4783H7.22132C7.11944 26.4785 7.01979 26.4504 6.93502 26.3974C6.85023 26.3446 6.78416 26.2693 6.74515 26.1812C6.70613 26.0931 6.69592 25.9962 6.71586 25.9026C6.73578 25.8091 6.78494 25.7232 6.85709 25.6559L11.7766 21.0521C11.8485 20.9846 11.9402 20.9386 12.04 20.92C12.1398 20.9013 12.2433 20.9107 12.3374 20.9471C12.4315 20.9836 12.5119 21.0453 12.5685 21.1244C12.625 21.2036 12.6553 21.2968 12.6553 21.3921V25.6905L11.8198 26.4783ZM25.8879 25.7224C25.8878 25.799 25.8552 25.8723 25.7974 25.9265L25.2993 26.3936C25.2415 26.4478 25.163 26.4783 25.0812 26.4783H17.7261C17.6242 26.4785 17.5246 26.4504 17.4398 26.3974C17.355 26.3446 17.2889 26.2693 17.2499 26.1812C17.2108 26.0931 17.2007 25.9962 17.2207 25.9026C17.2406 25.8091 17.2897 25.7232 17.3619 25.6559L25.0102 18.4978C25.0822 18.4307 25.1739 18.385 25.2737 18.3665C25.3734 18.3481 25.4767 18.3576 25.5706 18.3942C25.6645 18.4306 25.7448 18.4923 25.8013 18.5715C25.8578 18.6507 25.8878 18.7436 25.8879 18.8388V25.7224Z" fill="black"/>
</svg>
